<svg id="_9" data-name="9" xmlns="http://www.w3.org/2000/svg" viewBox="0 0 354.52 357.67"><defs><style>.cls-1{fill:#425f9c;}.cls-1,.cls-2{fill-rule:evenodd;}.cls-2{fill:#fefefe;}</style></defs><path class="cls-1" d="M261.42,160.49h295a29.83,29.83,0,0,1,29.76,29.73v295A29.84,29.84,0,0,1,556.41,515h-295a29.85,29.85,0,0,1-29.77-29.77v-295a29.83,29.83,0,0,1,29.77-29.73Z" transform="translate(-231.65 -160.49)"/><path class="cls-2" d="M469,304.11V279.64c0-11.91,7.93-14.68,13.54-14.68h34.3V212.55l-47.25-.22c-52.44,0-64.37,39.12-64.37,64.13v27.65H374.87v61.13h30.58V518.16h61.16V365.24h51.06l-.09-61.13Z" transform="translate(-231.65 -160.49)"/></svg>