<svg xmlns="http://www.w3.org/2000/svg" viewBox="0 0 324.25 214.56"><defs><style>.cls-1,.cls-5{fill:#333;}.cls-1{opacity:0;}.cls-2{fill:red;}.cls-3,.cls-4{fill:#fff;}.cls-4{font-size:35.5px;font-family:Roboto-Medium, Roboto;font-weight:500;}.cls-5{stroke:#fff;stroke-miterlimit:10;stroke-width:3px;}</style></defs><g id="BACKGROUND"><rect class="cls-1" width="324.25" height="197.59"/></g><g id="OBJECTS"><path class="cls-2" d="M199.59,233.16c0-1.18-.09-2.37-.17-3.55-.36-5-.88-10.75-4-14.75-2.63-3.43-6.7-4.21-10.57-4.68-4.91-.6-9.83-1-14.76-1.16-10-.41-20-.17-29.95.07-5.13.12-10.26.24-15.37.68-6.28.54-12.74,1.53-15.67,8.28-2.62,6.06-2.29,13.76-2.33,20.28,0,5.85,0,11.7.17,17.54.28,7.59.7,17.47,8.31,20.79,4.06,1.78,9,2.17,13.3,2.48,4.59.32,9.2.28,13.81.35,9.65.16,19.3-.2,28.95-.4,6.71-.15,13.59-.23,20-2.58,5.54-2,7-8.5,7.73-14.1s.56-11.21.55-16.82C199.62,241.45,199.73,237.3,199.59,233.16Z" transform="translate(-88.09 -195.38)"/><path class="cls-3" d="M167.86,244.05l-24-15.2v30.41Z" transform="translate(-88.09 -195.38)"/><path class="cls-3" d="M279,228.6H287v46.07h-7.78v-4.84c-.74.78-1.31,1.39-1.9,2-1.85,1.88-3.79,3.54-6.53,3.56a4.85,4.85,0,0,1-5.05-3.8,23.34,23.34,0,0,1-.8-5.64c-.12-12.22-.14-24.45-.19-36.67,0-.17,0-.34.05-.6h7.79c0,.37,0,.76,0,1.15q.07,17.63.14,35.24a8.85,8.85,0,0,0,0,1c.17,1.43,1.13,2.22,2.35,1.65a10.54,10.54,0,0,0,2.65-2.05,4.94,4.94,0,0,0,1.41-3.91c-.11-10.55-.11-21.11-.15-31.66Z" transform="translate(-88.09 -195.38)"/><path class="cls-3" d="M237.66,213.14c-1.43,5.09-2.8,10-4.18,15q-2.92,10.44-5.84,20.88a6.16,6.16,0,0,0-.2,1.6q0,11.43.12,22.85v1.21h-8.28v-1.12c0-7.65-.05-15.3-.12-22.95a10,10,0,0,0-.52-2.68q-4.9-16.8-9.84-33.58c-.09-.31-.18-.63-.31-1.11,2.82,0,5.51,0,8.2,0,.24,0,.59.52.68.85,1.28,5,2.52,9.94,3.78,14.92.66,2.61,1.32,5.23,2.18,7.86.41-1.73.84-3.45,1.25-5.18,1.38-5.85,2.77-11.7,4.12-17.57.17-.72.4-1,1.13-1C232.39,213.17,235,213.14,237.66,213.14Z" transform="translate(-88.09 -195.38)"/><path class="cls-3" d="M236.34,251.59c0-3.51-.09-7,0-10.54a21,21,0,0,1,.87-5.11c1.23-4.09,3.79-6.76,7.83-7.41,4.52-.73,8.55.23,11.35,4.53a15.11,15.11,0,0,1,2.18,7.33c.16,2.24.18,4.5.2,6.75,0,4.91.08,9.83,0,14.74a24,24,0,0,1-.65,5.15,10.73,10.73,0,0,1-21,.13,37,37,0,0,1-.83-7.07c-.14-2.83,0-5.67,0-8.5Zm14.72.45H251c0-3.58,0-7.17,0-10.75a11.14,11.14,0,0,0-.38-2.82,3.16,3.16,0,0,0-6.18.18,11.61,11.61,0,0,0-.32,2.63q0,10.59.12,21.19a12.28,12.28,0,0,0,.41,3,3.13,3.13,0,0,0,6.13-.08,13,13,0,0,0,.33-2.93C251.08,259,251.06,255.52,251.06,252Z" transform="translate(-88.09 -195.38)"/><path class="cls-3" d="M349.27,232.49a41.16,41.16,0,0,1,4.74-3.65c4.25-2.34,8.51-.24,9.59,4.74a42.36,42.36,0,0,1,.95,8.1c.11,6.79.07,13.59,0,20.38a38.49,38.49,0,0,1-.75,7.51c-1.16,5.38-5.9,7.49-10.35,4.67a41.09,41.09,0,0,1-4.21-3.5c0,.76,0,1.63,0,2.5,0,1.8.18,1.61-1.46,1.62h-5c-1.26,0-1.27,0-1.26-1.34l0-32.47c0-8.94,0-17.89,0-26.84,0-1,.29-1.27,1.19-1.24,1.9.07,3.8.06,5.71,0,.78,0,.95.28.95,1.06,0,5.67,0,11.34-.06,17Zm0,19.15h-.06c0,4.13.09,8.26,0,12.38a2.94,2.94,0,0,0,1.81,3.07,7.17,7.17,0,0,0,1.15.48c1.85.57,3.23-.2,3.75-2.18a12.86,12.86,0,0,0,.41-3q.08-10.89,0-21.8a11.1,11.1,0,0,0-.41-2.81,2.36,2.36,0,0,0-2.47-2,5.3,5.3,0,0,0-3.34,1.27,2,2,0,0,0-.83,1.79C349.29,243.11,349.27,247.37,349.27,251.64Z" transform="translate(-88.09 -195.38)"/><path class="cls-3" d="M327,270.12c-1,1-1.9,2-2.82,2.83a8.33,8.33,0,0,1-5.18,2.56c-3.23.2-5.44-1.75-6-5.45a30.74,30.74,0,0,1-.39-4.79c0-11.74,0-23.48,0-35.23,0-.95.2-1.32,1.15-1.29,2,.07,4,.06,6,0,.89,0,1.12.29,1.12,1.22q0,17.06,0,34.11c0,.61,0,1.23,0,1.84.08,1.46.85,2.08,2.17,1.78,1.77-.39,4-3.32,4-5.25q0-16.19,0-32.37c0-1.33,0-1.33,1.24-1.33,2,0,4,0,6,0,.71,0,1,.17,1,1q0,22.08,0,44.15c0,.72-.17,1-.91,1-2.16,0-4.31,0-6.47,0-.68,0-.88-.26-.86-1C327,272.72,327,271.5,327,270.12Z" transform="translate(-88.09 -195.38)"/><path class="cls-3" d="M384.86,258.58c2.68,0,5.18,0,7.68,0,.19,0,.55.32.54.49,0,3.41.18,6.87-1.4,10a10.5,10.5,0,0,1-9.28,6.28c-5.34.28-9.31-2.11-11.43-6.89a17.19,17.19,0,0,1-1.42-7.05c0-6.79,0-13.59.17-20.37.13-4.1,1.42-7.79,4.54-10.53,5.3-4.67,16.19-3.6,18.34,7a32.21,32.21,0,0,1,.56,5.47c.09,2.94,0,5.87,0,8.81,0,1.36,0,1.36-1.23,1.36l-12.85,0H378c-.06.13-.14.22-.14.3,0,3.41,0,6.82.09,10.23a5.57,5.57,0,0,0,.45,1.87,3,3,0,0,0,3.26,2.1,2.9,2.9,0,0,0,2.87-2.37,23.36,23.36,0,0,0,.36-3.85C384.9,260.58,384.86,259.66,384.86,258.58Zm.15-12.43c-.11-2.7-.11-5.28-.36-7.83-.19-1.88-1.26-2.59-3.19-2.59s-3.15.71-3.34,2.64c-.25,2.36-.23,4.75-.27,7.13,0,.21.33.62.51.62C380.51,246.17,382.65,246.15,385,246.15Z" transform="translate(-88.09 -195.38)"/><path class="cls-3" d="M295.94,222.07c-2,0-4,0-5.93,0-.94,0-2.18.25-2.72-.28s-.18-1.86-.2-2.84c0-1.57,0-3.15,0-4.71,0-.85.27-1,1-1q9.75,0,19.5-.06c1.84,0,3.69,0,5.52,0,.75,0,.92.28.91,1q-.06,3.43,0,6.86c0,.81-.23,1.07-1,1.06-2.25,0-4.5,0-6.75,0h-1.62v2q0,24.65,0,49.27c0,1.55,0,1.55-1.44,1.55h-5.9c-1.26,0-1.28,0-1.28-1.42q0-13.79,0-27.55l0-22.64C296,222.9,296,222.54,295.94,222.07Z" transform="translate(-88.09 -195.38)"/><rect class="cls-2" x="8.05" y="104.8" width="307.7" height="76.23" rx="16"/><path class="cls-3" d="M182.66,330.2c0-.87-.07-1.75-.14-2.62-.28-3.68-.69-7.9-3.13-10.85-2.08-2.53-5.31-3.1-8.38-3.44-3.88-.44-7.78-.71-11.68-.86-7.91-.3-15.82-.12-23.72.05-4.07.09-8.13.18-12.18.5-5,.4-10.09,1.13-12.41,6.1-2.08,4.46-1.82,10.12-1.84,14.92,0,4.31,0,8.61.13,12.91.23,5.58.56,12.85,6.58,15.3,3.22,1.3,7.1,1.6,10.53,1.82,3.65.24,7.3.21,10.94.26,7.65.12,15.29-.15,22.94-.3,5.31-.1,10.76-.16,15.84-1.9,4.38-1.49,5.53-6.25,6.12-10.37a85.27,85.27,0,0,0,.43-12.38C182.69,336.3,182.77,333.24,182.66,330.2Z" transform="translate(-88.09 -195.38)"/><path class="cls-2" d="M157.53,338.21l-19-11.18V349.4Z" transform="translate(-88.09 -195.38)"/><text class="cls-4" transform="translate(106.56 154.81)">SUBSCRIBE</text><polygon class="cls-5" points="276.48 197.12 252.06 172.36 250.95 207.12 259.64 200.27 264.48 212.62 270.28 210.35 265.44 198 276.48 197.12"/></g></svg>